{
	"asset":{
		"generator":"Khronos glTF Blender I/O v3.6.27",
		"version":"2.0"
	},
	"extensionsUsed":[
		"KHR_materials_specular",
		"KHR_materials_ior"
	],
	"scene":0,
	"scenes":[
		{
			"name":"Scene",
			"nodes":[
				0
			]
		}
	],
	"nodes":[
		{
			"mesh":0,
			"name":"Shogun-Warrior"
		}
	],
	"animations":[
		{
			"channels":[
				{
					"sampler":0,
					"target":{
						"node":0,
						"path":"translation"
					}
				},
				{
					"sampler":1,
					"target":{
						"node":0,
						"path":"rotation"
					}
				},
				{
					"sampler":2,
					"target":{
						"node":0,
						"path":"scale"
					}
				}
			],
			"name":"Shogun-WarriorAction",
			"samplers":[
				{
					"input":4,
					"interpolation":"STEP",
					"output":5
				},
				{
					"input":4,
					"interpolation":"STEP",
					"output":6
				},
				{
					"input":4,
					"interpolation":"STEP",
					"output":7
				}
			]
		}
	],
	"materials":[
		{
			"doubleSided":true,
			"extensions":{
				"KHR_materials_specular":{
					"specularColorTexture":{
						"index":0
					}
				},
				"KHR_materials_ior":{
					"ior":1.4500000476837158
				}
			},
			"name":"Shogun",
			"normalTexture":{
				"index":1
			},
			"pbrMetallicRoughness":{
				"baseColorTexture":{
					"index":2
				},
				"metallicFactor":0,
				"roughnessFactor":0.5
			}
		}
	],
	"meshes":[
		{
			"name":"Plane",
			"primitives":[
				{
					"attributes":{
						"POSITION":0,
						"NORMAL":1,
						"TEXCOORD_0":2
					},
					"indices":3,
					"material":0
				}
			]
		}
	],
	"textures":[
		{
			"sampler":0,
			"source":0
		},
		{
			"sampler":0,
			"source":1
		},
		{
			"sampler":0,
			"source":2
		}
	],
	"images":[
		{
			"mimeType":"image/png",
			"name":"Image",
			"uri":"Image.png"
		},
		{
			"mimeType":"image/png",
			"name":"Shogun_Normal",
			"uri":"Shogun_Normal.png"
		},
		{
			"mimeType":"image/png",
			"name":"Shogun_BaseColor",
			"uri":"Shogun_BaseColor.png"
		}
	],
	"accessors":[
		{
			"bufferView":0,
			"componentType":5126,
			"count":4846,
			"max":[
				0.5564647316932678,
				2.020627975463867,
				0.2568855285644531
			],
			"min":[
				-0.5564647316932678,
				-0.0005941390991210938,
				-0.25908857583999634
			],
			"type":"VEC3"
		},
		{
			"bufferView":1,
			"componentType":5126,
			"count":4846,
			"type":"VEC3"
		},
		{
			"bufferView":2,
			"componentType":5126,
			"count":4846,
			"type":"VEC2"
		},
		{
			"bufferView":3,
			"componentType":5123,
			"count":23520,
			"type":"SCALAR"
		},
		{
			"bufferView":4,
			"componentType":5126,
			"count":2,
			"max":[
				4.166666666666667
			],
			"min":[
				0
			],
			"type":"SCALAR"
		},
		{
			"bufferView":5,
			"componentType":5126,
			"count":2,
			"type":"VEC3"
		},
		{
			"bufferView":6,
			"componentType":5126,
			"count":2,
			"type":"VEC4"
		},
		{
			"bufferView":7,
			"componentType":5126,
			"count":2,
			"type":"VEC3"
		}
	],
	"bufferViews":[
		{
			"buffer":0,
			"byteLength":58152,
			"byteOffset":0,
			"target":34962
		},
		{
			"buffer":0,
			"byteLength":58152,
			"byteOffset":58152,
			"target":34962
		},
		{
			"buffer":0,
			"byteLength":38768,
			"byteOffset":116304,
			"target":34962
		},
		{
			"buffer":0,
			"byteLength":47040,
			"byteOffset":155072,
			"target":34963
		},
		{
			"buffer":0,
			"byteLength":8,
			"byteOffset":202112
		},
		{
			"buffer":0,
			"byteLength":24,
			"byteOffset":202120
		},
		{
			"buffer":0,
			"byteLength":32,
			"byteOffset":202144
		},
		{
			"buffer":0,
			"byteLength":24,
			"byteOffset":202176
		}
	],
	"samplers":[
		{
			"magFilter":9729,
			"minFilter":9987
		}
	],
	"buffers":[
		{
			"byteLength":202200,
			"uri":"scene.bin"
		}
	]
}
